<svg width="34" height="34" viewBox="0 0 34 34" fill="none" xmlns="http://www.w3.org/2000/svg">
<path d="M8.29663 16.9927L8.29663 23.0731C8.29663 23.7365 8.55384 24.3741 9.0142 24.8518C13.0764 29.0672 19.7306 29.3567 24.1436 25.5101L24.8006 24.9373C25.4056 24.4099 25.7529 23.6465 25.7529 22.8438V16.9927" stroke="black" stroke-width="2.41"/>
<path d="M15.4868 5.27714C16.4101 4.76762 17.526 4.74935 18.4654 5.22837L30.8771 11.5572C31.8767 12.067 31.8654 13.4992 30.8577 13.993L18.3635 20.1163C17.4803 20.5492 16.4463 20.5486 15.5636 20.1147L3.64735 14.257C2.65932 13.7713 2.62621 12.3748 3.59011 11.8428L15.4868 5.27714Z" stroke="black" stroke-width="2.41"/>
<path d="M30.5801 14.6753V21.5068" stroke="black" stroke-width="2.41" stroke-linecap="round"/>
</svg>
