<svg width="34" height="34" viewBox="0 0 34 34" fill="none" xmlns="http://www.w3.org/2000/svg">
<circle cx="16.75" cy="16.75" r="12.75" stroke="#040404" stroke-width="2.40833" stroke-linecap="round" stroke-linejoin="round"/>
<path d="M21.8503 16.75C21.8503 18.4244 21.7184 20.0823 21.4621 21.6292C21.2058 23.1761 20.8302 24.5817 20.3566 25.7656C19.883 26.9496 19.3208 27.8887 18.702 28.5295C18.0833 29.1702 17.4201 29.5 16.7503 29.5C16.0806 29.5 15.4174 29.1702 14.7986 28.5295C14.1799 27.8887 13.6177 26.9496 13.1441 25.7656C12.6705 24.5817 12.2948 23.1761 12.0385 21.6292C11.7822 20.0823 11.6503 18.4244 11.6503 16.75C11.6503 15.0756 11.7822 13.4177 12.0385 11.8708C12.2948 10.3239 12.6705 8.91833 13.1441 7.73439C13.6177 6.55044 14.1799 5.61128 14.7986 4.97054C15.4174 4.32979 16.0806 4 16.7503 4C17.4201 4 18.0833 4.32979 18.702 4.97054C19.3208 5.61128 19.883 6.55044 20.3566 7.73439C20.8302 8.91834 21.2058 10.3239 21.4621 11.8708C21.7184 13.4177 21.8503 15.0756 21.8503 16.75L21.8503 16.75Z" stroke="#040404" stroke-width="2.40833" stroke-linecap="round" stroke-linejoin="round"/>
<path d="M4 16.75H29.2681" stroke="#040404" stroke-width="2.40833" stroke-linecap="round" stroke-linejoin="round"/>
</svg>
